HIERARCHY
ROOT Hips
{
	OFFSET 0.00 0.00 0.00
	CHANNELS 6 Xposition Yposition Zposition Xrotation Yrotation Zrotation
	JOINT Spine
	{
		OFFSET 0.00000 7.53995 0.00000
		CHANNELS 3 Xrotation Yrotation Zrotation
		JOINT Head
		{
			OFFSET 0.00000 15.09381 0.00000
			CHANNELS 3 Xrotation Yrotation Zrotation
			End Site
			{
				OFFSET 0.00000 4.52755 0.00000
			}
		}
		JOINT LeftShoulder
		{
			OFFSET 0.00000 9.73893 0.00000
			CHANNELS 3 Xrotation Yrotation Zrotation
			JOINT LeftArm
			{
				OFFSET 7.08401 0.00000 0.00000
				CHANNELS 3 Xrotation Yrotation Zrotation
				JOINT LeftForeArm
				{
					OFFSET 10.25932 0.00000 0.00000
					CHANNELS 3 Yrotation Zrotation Xrotation
					JOINT LeftHand
					{
						OFFSET 9.89698 0.00000 0.00000
						CHANNELS 3 Xrotation Yrotation Zrotation
						JOINT LeftHandThumb1
						{
							OFFSET 0.00000 0.00000 0.00000
							CHANNELS 3 Xrotation Zrotation Yrotation
							End Site
							{
								OFFSET 0.00000 0.00000 3.93700
							}
						}
						End Site
						{
							OFFSET 3.93700 0.00000 0.00000
						}
					}
				}
			}
		}
		JOINT RightShoulder
		{
			OFFSET 0.00000 9.73893 0.00000
			CHANNELS 3 Xrotation Yrotation Zrotation
			JOINT RightArm
			{
				OFFSET -7.08401 0.00000 0.00000
				CHANNELS 3 Xrotation Yrotation Zrotation
				JOINT RightForeArm
				{
					OFFSET -10.25932 0.00000 0.00000
					CHANNELS 3 Yrotation Zrotation Xrotation
					JOINT RightHand
					{
						OFFSET -9.89698 0.00000 0.00000
						CHANNELS 3 Xrotation Yrotation Zrotation
						JOINT RightHandThumb1
						{
							OFFSET 0.00000 0.00000 0.00000
							CHANNELS 3 Xrotation Zrotation Yrotation
							End Site
							{
								OFFSET 0.00000 0.00000 3.93700
							}
						}
						End Site
						{
							OFFSET -3.93700 0.00000 0.00000
						}
					}
				}
			}
		}
	}
	JOINT LeftUpLeg
	{
		OFFSET 3.34548 0.00000 0.00000
		CHANNELS 3 Xrotation Yrotation Zrotation
		JOINT LeftLeg
		{
			OFFSET 0.00000 -19.11473 0.00000
			CHANNELS 3 Xrotation Yrotation Zrotation
			JOINT LeftFoot
			{
				OFFSET 0.00000 -16.04560 0.00000
				CHANNELS 3 Xrotation Yrotation Zrotation
				JOINT LeftToeBase
				{
					OFFSET 0.00000 -1.43467 5.35428
					CHANNELS 3 Xrotation Yrotation Zrotation
					End Site
					{
						OFFSET 0.00000 0.00000 2.95275
					}
				}
			}
		}
	}
	JOINT RightUpLeg
	{
		OFFSET -3.34548 0.00000 0.00000
		CHANNELS 3 Xrotation Yrotation Zrotation
		JOINT RightLeg
		{
			OFFSET 0.00000 -19.11473 0.00000
			CHANNELS 3 Xrotation Yrotation Zrotation
			JOINT RightFoot
			{
				OFFSET 0.00000 -16.04560 0.00000
				CHANNELS 3 Xrotation Yrotation Zrotation
				JOINT RightToeBase
				{
					OFFSET 0.00000 -1.43467 5.35428
					CHANNELS 3 Xrotation Yrotation Zrotation
					End Site
					{
						OFFSET 0.00000 0.00000 2.95275
					}
				}
			}
		}
	}
}
MOTION
Frames: 13
Frame Time: 0.008333
 -0.8433 36.8788 4.9323 6.5029 -1.5370 -0.6516 -1.9022 3.3571 -2.7421 1.1585 9.9381 -1.0020 -4.7591 -0.7007 -3.1602 31.2717 -53.0806 -37.2467 -85.7540 -0.0000 -64.3719 8.6541 21.8332 -22.2568 33.1476 -0.0000 26.2537 21.6118 -1.2233 -0.9828 -5.1539 40.1935 63.2214 34.4734 -0.0000 147.4950 -0.0569 -1.6166 -2.0156 32.8623 0.0000 -24.3270 -5.2970 14.0660 5.5906 7.3017 -0.0000 -0.0000 -14.0468 13.7644 -16.3539 14.9518 0.0000 0.0000 -6.9576 -9.0902 -2.1402 10.3117 -0.0000 0.0000 -14.0929 -9.6002 10.2002 10.9919 0.0000 -0.0000
 -0.8427 36.8789 4.9323 6.5049 -1.5908 -0.6490 -1.8866 3.3399 -2.7218 1.1695 9.9613 -1.0065 -4.7109 -0.6699 -3.1447 30.9281 -52.9170 -37.4091 -85.8510 -0.0000 -64.1493 8.6826 21.7882 -22.3634 33.1476 -0.0000 26.2537 21.6004 -1.2401 -0.9731 -5.1479 40.2088 63.2297 34.4691 -0.0000 147.4969 -0.0568 -1.6345 -1.9904 32.8623 0.0000 -24.3270 -5.2888 14.0968 5.5884 7.2957 0.0000 0.0000 -14.0532 13.7847 -16.3150 14.9379 0.0000 0.0000 -6.9775 -9.0834 -2.1397 10.3364 -0.0000 0.0000 -14.0878 -9.5878 10.2375 11.0048 -0.0000 0.0000
 -0.8445 36.8796 4.9322 6.5077 -1.6559 -0.6523 -1.8762 3.3380 -2.7042 1.1947 9.9878 -0.9979 -4.6621 -0.6379 -3.1264 30.4343 -52.6469 -37.7199 -85.9733 -0.0000 -63.8446 8.6605 21.6711 -22.4146 33.1476 -0.0000 26.2537 21.6143 -1.2488 -0.9556 -5.1481 40.2324 63.2265 34.4614 -0.0000 147.4946 -0.0563 -1.6629 -1.9377 32.8623 0.0000 -24.3270 -5.2814 14.1278 5.5977 7.2845 0.0000 0.0000 -14.0383 13.8244 -16.3396 14.9214 0.0000 0.0000 -6.9802 -9.0606 -2.1284 10.3177 -0.0000 0.0000 -14.0862 -9.5026 10.2563 11.0916 -0.0000 0.0000
 -0.8474 36.8798 4.9319 6.5149 -1.7027 -0.6589 -1.8731 3.3235 -2.6871 1.2321 9.9988 -0.9755 -4.6688 -0.6050 -3.1024 29.8561 -52.2914 -38.1720 -86.1090 -0.0000 -63.6116 8.6297 21.5999 -22.4049 33.1476 -0.0000 26.2537 21.6358 -1.2500 -0.9368 -5.1515 40.2255 63.2236 34.4701 -0.0000 147.4886 -0.0547 -1.6367 -1.9144 32.8623 0.0000 -24.3270 -5.2888 14.1668 5.6137 7.2850 0.0000 -0.0000 -14.0442 13.8339 -16.3552 14.9492 -0.0000 -0.0000 -6.9801 -9.0302 -2.1123 10.2998 0.0000 -0.0000 -14.0527 -9.5323 10.2412 10.9728 -0.0000 -0.0000
 -0.8501 36.8802 4.9328 6.5201 -1.7566 -0.6678 -1.8674 3.3138 -2.6661 1.2651 10.0191 -0.9332 -4.6663 -0.5561 -3.0783 29.1109 -51.8132 -38.7773 -86.2720 -0.0000 -63.2662 8.5953 21.4694 -22.4395 33.1476 -0.0000 26.2537 21.6561 -1.2587 -0.9222 -5.1752 40.2146 63.2435 34.4676 -0.0000 147.6049 -0.0518 -1.6473 -1.8001 32.8623 0.0000 -24.3270 -5.2884 14.2035 5.6305 7.2782 0.0000 0.0000 -14.0500 13.8447 -16.3385 14.9534 -0.0000 0.0000 -6.9782 -8.9953 -2.0919 10.2795 -0.0000 -0.0000 -14.0429 -9.5154 10.2550 11.0060 -0.0000 0.0000
 -0.8615 36.8798 4.9465 6.4419 -1.6595 -0.7248 -1.7852 3.1965 -2.6138 1.2945 9.9939 -0.8973 -4.7082 -0.5489 -3.0477 28.1082 -51.0779 -39.6514 -86.4067 -0.0000 -62.0644 8.9538 21.3783 -23.3755 33.1476 -0.0000 26.2537 21.6575 -1.2890 -0.8857 -5.1678 40.1849 63.2595 34.4532 -0.0000 147.6435 -0.0517 -1.6605 -1.7819 32.8623 0.0000 -24.3270 -5.2153 14.1398 5.7026 7.2772 -0.0000 -0.0000 -14.0579 13.8016 -16.3884 14.9385 -0.0000 0.0000 -6.8227 -9.1557 -2.0272 10.1967 0.0000 0.0000 -14.0153 -9.4764 10.2579 10.9684 -0.0000 -0.0000
 -0.8671 36.8795 4.9553 6.3145 -1.7117 -0.7654 -1.6147 3.2110 -2.5599 1.3010 10.0561 -0.8562 -4.7469 -0.5083 -3.0471 27.1448 -50.4250 -40.4544 -86.4655 -0.0000 -61.2204 8.9416 20.9331 -23.7680 33.1476 -0.0000 26.2537 21.6499 -1.2721 -0.8795 -5.1704 40.1279 63.2654 34.4399 -0.0000 147.6531 -0.0523 -1.7531 -1.7104 32.8623 0.0000 -24.3270 -5.0730 14.2163 5.7539 7.2554 0.0000 -0.0000 -14.0729 13.7749 -16.3993 14.9578 0.0000 0.0000 -6.6636 -9.1206 -1.9743 10.1639 -0.0000 0.0000 -13.9932 -9.4662 10.2559 11.0295 -0.0000 0.0000
 -0.8676 36.8796 4.9562 6.2965 -1.7792 -0.7583 -1.5736 3.2330 -2.5569 1.2930 10.0715 -0.8081 -4.7307 -0.4088 -3.0526 26.1963 -49.9491 -41.1669 -86.5091 -0.0000 -61.6497 9.3856 20.3806 -25.3901 33.1476 -0.0000 26.2537 21.6613 -1.2766 -0.8717 -5.1906 40.1221 63.2817 34.3999 -0.0000 147.6250 -0.0523 -1.7822 -1.6826 32.8623 0.0000 -24.3270 -5.0396 14.2768 5.7460 7.2462 -0.0000 -0.0000 -14.0417 13.6855 -16.2068 14.6605 0.0000 -0.0000 -6.6636 -9.0877 -1.9752 10.1849 -0.0000 -0.0000 -14.0048 -9.4389 10.2400 11.0084 -0.0000 -0.0000
 -0.8688 36.8793 4.9574 6.2872 -1.8179 -0.7515 -1.5504 3.2630 -2.5553 1.3110 10.0627 -0.7662 -4.7837 -0.3721 -3.0640 25.1960 -49.1264 -42.0563 -86.7622 -0.0000 -61.5613 8.7889 20.3283 -23.9914 33.1476 -0.0000 26.2537 21.6553 -1.2800 -0.8619 -5.1562 40.0605 63.2948 34.4086 -0.0000 147.6754 -0.0488 -1.7037 -1.6396 32.8623 0.0000 -24.3270 -5.0150 14.2876 5.7432 7.2277 -0.0000 -0.0000 -14.0699 13.8120 -16.3720 14.9316 -0.0000 0.0000 -6.6632 -9.0745 -1.9777 10.1962 0.0000 -0.0000 -14.0089 -9.4151 10.2341 10.9922 0.0000 -0.0000
 -0.8717 36.8794 4.9591 6.2825 -1.8713 -0.7529 -1.5347 3.3091 -2.5498 1.3349 10.0565 -0.7086 -4.8314 -0.3133 -3.0762 24.0741 -48.1927 -43.0334 -86.9982 -0.0000 -61.3117 8.4771 20.0831 -23.4629 33.1476 -0.0000 26.2537 21.6937 -1.2973 -0.8373 -5.1761 40.0306 63.3003 34.3826 -0.0000 147.6947 -0.0489 -1.6532 -1.6935 32.8623 0.0000 -24.3270 -4.9996 14.3281 5.7527 7.2174 0.0000 0.0000 -14.0796 13.8357 -16.4116 15.0101 0.0000 0.0000 -6.6491 -9.0185 -1.9675 10.1733 -0.0000 -0.0000 -13.9887 -9.4081 10.2559 10.9671 -0.0000 0.0000
 -0.8737 36.8793 4.9604 6.2866 -1.9204 -0.7481 -1.5318 3.3727 -2.5533 1.3735 10.0407 -0.6136 -4.8630 -0.2591 -3.0779 22.8968 -47.2657 -44.0533 -87.1735 -0.0000 -61.2076 8.4082 19.8372 -23.5369 33.1476 -0.0000 26.2537 21.7100 -1.3149 -0.8146 -5.1665 39.9804 63.3096 34.3546 -0.0000 147.7488 -0.0513 -1.6668 -1.7622 32.8623 0.0000 -24.3270 -4.9990 14.3796 5.7527 7.2163 -0.0000 0.0000 -14.0721 13.8378 -16.3809 14.9653 -0.0000 -0.0000 -6.6559 -8.9746 -1.9625 10.1727 0.0000 0.0000 -13.9847 -9.4068 10.2351 10.9370 0.0000 -0.0000
 -0.8773 36.8797 4.9612 6.2956 -1.9598 -0.7535 -1.5353 3.4254 -2.5438 1.3916 9.9975 -0.5862 -4.9195 -0.1960 -3.0929 21.7289 -46.2839 -45.0698 -87.3619 -0.0000 -61.1456 8.2261 19.6239 -23.2899 33.1476 -0.0000 26.2537 21.7178 -1.3260 -0.8072 -5.1521 39.9451 63.3341 34.3038 -0.0000 147.7437 -0.0535 -1.7044 -1.7981 32.8623 0.0000 -24.3270 -5.0043 14.4094 5.7665 7.2143 -0.0000 0.0000 -14.0690 13.8415 -16.3881 14.9529 -0.0000 0.0000 -6.6677 -8.9457 -1.9467 10.1772 0.0000 0.0000 -13.9803 -9.4013 10.2311 10.9722 -0.0000 0.0000
 -0.8796 36.8792 4.9622 6.3036 -1.9795 -0.7559 -1.5443 3.4609 -2.5356 1.4410 9.9709 -0.5356 -4.9386 -0.1228 -3.1210 20.5445 -45.3028 -46.0067 -87.4611 -0.0000 -61.1800 7.9217 19.2076 -22.9260 33.1476 -0.0000 26.2537 21.7645 -1.3363 -0.8044 -5.1401 39.9377 63.3218 34.2637 -0.0000 147.6861 -0.0544 -1.6704 -1.8658 32.8623 0.0000 -24.3270 -5.0081 14.4097 5.7731 7.2121 0.0000 0.0000 -14.0732 13.8670 -16.3976 14.9532 0.0000 -0.0000 -6.6762 -8.9301 -1.9399 10.1807 0.0000 -0.0000 -13.9806 -9.3877 10.2364 10.9658 -0.0000 0.0000
